<svg id="Circular_glyph" data-name="Circular glyph" xmlns="http://www.w3.org/2000/svg" viewBox="0 0 64 64"><defs><style>.cls-1{fill:#090806;}</style></defs><title>1</title><path class="cls-1" d="M24.01,29.1a2.9,2.9,0,0,0,0,5.8A2.9,2.9,0,0,0,24.01,29.1Zm0,4.38a1.48011,1.48011,0,0,1,0-2.96A1.48011,1.48011,0,0,1,24.01,33.48Z"/><path class="cls-1" d="M39.99,29.1a2.90012,2.90012,0,0,0,0,5.8A2.90012,2.90012,0,0,0,39.99,29.1Zm0,4.38a1.4803,1.4803,0,0,1,0-2.96A1.4803,1.4803,0,0,1,39.99,33.48Z"/><path class="cls-1" d="M47.25,29.76a10.15986,10.15986,0,0,0-3.92-6.44c-4.41-3.18-9.05-.47-11.33,1.8-2.28-2.27-6.92-4.99-11.33-1.8a10.15986,10.15986,0,0,0-3.92,6.44c-.51,2.75-.68,6.59,1.41,9.31C19.59,40.91,21.84,41.94,24.84,42.15h.1c.16-.02,3.55-.27,5-2.27a.83519.83519,0,0,1,.08.12l1.41,1.86a.71252.71252,0,0,0,1.14,0L33.98,40a.83519.83519,0,0,1,.08-.12c1.45,2,4.84,2.25,5,2.27h.1c3-.21,5.25-1.24,6.68006-3.07995C47.93,36.35,47.76,32.51,47.25,29.76ZM32.84,39.14,32,40.25l-.84-1.11c-1.25995-1.56-.9-4.05.85-4.05C33.74,35.1,34.09,37.59,32.84,39.14Zm11.87-.95c-1.16,1.5-3.04,2.35-5.6,2.53-1.12-.06-3.73-.71-4.29-2.35.84-2.7-.93-4.75-2.82-4.7a3.04024,3.04024,0,0,0-3.01,3.04c-.15.6.32,1.48.06,1.88-.59,1.52-3.16,2.05-4.16,2.13-2.56-.18-4.44-1.03-5.6-2.53-1.77-2.3-1.6-5.71-1.14-8.17a8.76872,8.76872,0,0,1,3.36-5.55c4.8-3.47,9.52,1.67,9.93,2.13a.69944.69944,0,0,0,1.06.06c.49-.51,5.12-5.67,9.99-2.19C46.2,26.95,47.46,34.41,44.71,38.19Z"/><path class="cls-1" d="M32,0A32,32,0,1,0,64,32,32.004,32.004,0,0,0,32,0ZM51.93,34.22c-2.27,15.93-18.11,14.31-19.91,14.5-1.87-.19-17.65,1.46-19.95-14.51a19.28446,19.28446,0,0,1,4.15-13.53l-2.83-4.29a.72353.72353,0,0,1,.89-1.05,42.21457,42.21457,0,0,0,17.71,3.39h.02a42.21457,42.21457,0,0,0,17.71-3.39.72354.72354,0,0,1,.89,1.05l-2.83,4.29A19.29626,19.29626,0,0,1,51.93,34.22Z"/></svg>