<svg id="Circular_glyph" data-name="Circular glyph" xmlns="http://www.w3.org/2000/svg" viewBox="0 0 64 64"><defs><style>.cls-1{fill:#090806;}</style></defs><title>1</title><path class="cls-1" d="M22.22,25.55c-.12-.13-.3-.3-.46-.46l-.45-.45.96-2.34-5.25-4.05c-.16.67.59,2.15,1.16,2.95a.71336.71336,0,0,1-1.16.83c-.31-.44-1.81-2.66-1.37-4.21.18-.67,1.03-1.56,1.76-1.07L23.58,21.5a.70266.70266,0,0,1,.22.83l-1.4,3.39Z"/><path class="cls-1" d="M24.64,29.61c-3.44.1-3.44,5.44,0,5.53C28.08,35.03,28.08,29.73,24.64,29.61Zm0,4.1c-1.56-.03-1.56-2.64,0-2.67C26.19,31.07,26.19,33.68,24.64,33.71Z"/><path class="cls-1" d="M39.9,29.61c-3.44.12-3.44,5.42,0,5.53C43.35,35.05,43.35,29.71,39.9,29.61Zm0,4.1c-1.54-.03-1.54-2.64,0-2.67C41.46,31.07,41.46,33.68,39.9,33.71Z"/><path class="cls-1" d="M29.22,39.91a2.13848,2.13848,0,1,0,0,4.26A2.13849,2.13849,0,1,0,29.22,39.91Zm-.93,2.13c.03-.92,1.83-.92,1.86,0C30.13,42.96,28.32,42.96,28.29,42.04Zm7.56-2.13a2.13849,2.13849,0,1,0,0,4.26A2.13849,2.13849,0,1,0,35.85,39.91Zm-.93,2.13c.03-.92,1.83-.92,1.86,0C36.75,42.96,34.95,42.96,34.92,42.04Zm4.61,1.55a4.19257,4.19257,0,0,1-1.77,2,6.48748,6.48748,0,0,1-3.47.94H31.63a7.55082,7.55082,0,0,1-5.51-2.83c-.29-.48-.68-.73-1.17-.43005-.47.39-.38.83.05,1.32a9.045,9.045,0,0,0,6.6,3.37h2.69c2.69.03,5.63-1.41,6.57-3.85A.71416.71416,0,0,0,39.53,43.59Zm0,0a4.19257,4.19257,0,0,1-1.77,2,6.48748,6.48748,0,0,1-3.47.94H31.63a7.55082,7.55082,0,0,1-5.51-2.83c-.29-.48-.68-.73-1.17-.43005-.47.39-.38.83.05,1.32a9.045,9.045,0,0,0,6.6,3.37h2.69c2.69.03,5.63-1.41,6.57-3.85A.71416.71416,0,0,0,39.53,43.59Zm-3.68-3.68a2.13849,2.13849,0,1,0,0,4.26A2.13849,2.13849,0,1,0,35.85,39.91Zm-.93,2.13c.03-.92,1.83-.92,1.86,0C36.75,42.96,34.95,42.96,34.92,42.04Zm-5.7-2.13a2.13848,2.13848,0,1,0,0,4.26A2.13849,2.13849,0,1,0,29.22,39.91Zm-.93,2.13c.03-.92,1.83-.92,1.86,0C30.13,42.96,28.32,42.96,28.29,42.04Zm.93-2.13a2.13848,2.13848,0,1,0,0,4.26A2.13849,2.13849,0,1,0,29.22,39.91Zm-.93,2.13c.03-.92,1.83-.92,1.86,0C30.13,42.96,28.32,42.96,28.29,42.04Zm7.56-2.13a2.13849,2.13849,0,1,0,0,4.26A2.13849,2.13849,0,1,0,35.85,39.91Zm-.93,2.13c.03-.92,1.83-.92,1.86,0C36.75,42.96,34.95,42.96,34.92,42.04Zm4.61,1.55a4.19257,4.19257,0,0,1-1.77,2,6.48748,6.48748,0,0,1-3.47.94H31.63a7.55082,7.55082,0,0,1-5.51-2.83c-.29-.48-.68-.73-1.17-.43005-.47.39-.38.83.05,1.32a9.045,9.045,0,0,0,6.6,3.37h2.69c2.69.03,5.63-1.41,6.57-3.85A.71416.71416,0,0,0,39.53,43.59Zm0,0a4.19257,4.19257,0,0,1-1.77,2,6.48748,6.48748,0,0,1-3.47.94H31.63a7.55082,7.55082,0,0,1-5.51-2.83c-.29-.48-.68-.73-1.17-.43005-.47.39-.38.83.05,1.32a9.045,9.045,0,0,0,6.6,3.37h2.69c2.69.03,5.63-1.41,6.57-3.85A.71416.71416,0,0,0,39.53,43.59Zm-3.68.58a2.13849,2.13849,0,1,0,0-4.26A2.13849,2.13849,0,1,0,35.85,44.17Zm.93-2.13c-.03.92-1.83.92-1.86,0C34.95,41.12,36.75,41.12,36.78,42.04ZM29.22,44.17a2.13849,2.13849,0,1,0,0-4.26A2.13848,2.13848,0,1,0,29.22,44.17ZM30.15,42.04c-.02.92-1.83.92-1.86,0C28.32,41.12,30.12,41.12,30.15,42.04Zm7.01-5.41L33.68,21.74a1.28567,1.28567,0,0,0-2.5-.01l-3.7,15.13c-.15.05-.34.11-.54.19-4.99,1.82-6.07,9.02-1.93,12.26,4.02,1.63,14.8,2.68,17.36-2.77C44.47,42.88,42.54,38.62,37.16,36.63ZM32.43,22.65,35.81,37.1a5.78341,5.78341,0,0,1-6.85-.29Zm8.7,23.18c-2.6,5.05-11.89,3.8-11.94,3.79-6.52-.89-7.28-9.69-1.01-11.46a.88019.88019,0,0,0,.15-.05,7.05008,7.05008,0,0,0,4.15,1.39,8.27728,8.27728,0,0,0,4.47-1.42c2.5,1.07,4.05,2.42,4.6,4.04A4.72587,4.72587,0,0,1,41.13,45.83Zm-1.6-2.24a4.19257,4.19257,0,0,1-1.77,2,6.48748,6.48748,0,0,1-3.47.94H31.63a7.55082,7.55082,0,0,1-5.51-2.83c-.29-.48-.68-.73-1.17-.43005-.47.39-.38.83.05,1.32a9.045,9.045,0,0,0,6.6,3.37h2.69c2.69.03,5.63-1.41,6.57-3.85A.71416.71416,0,0,0,39.53,43.59Zm-3.68.58a2.13849,2.13849,0,1,0,0-4.26A2.13849,2.13849,0,1,0,35.85,44.17Zm.93-2.13c-.03.92-1.83.92-1.86,0C34.95,41.12,36.75,41.12,36.78,42.04ZM29.22,44.17a2.13849,2.13849,0,1,0,0-4.26A2.13848,2.13848,0,1,0,29.22,44.17ZM30.15,42.04c-.02.92-1.83.92-1.86,0C28.32,41.12,30.12,41.12,30.15,42.04ZM29.22,39.91a2.13848,2.13848,0,1,0,0,4.26A2.13849,2.13849,0,1,0,29.22,39.91Zm-.93,2.13c.03-.92,1.83-.92,1.86,0C30.13,42.96,28.32,42.96,28.29,42.04Zm7.56-2.13a2.13849,2.13849,0,1,0,0,4.26A2.13849,2.13849,0,1,0,35.85,39.91Zm-.93,2.13c.03-.92,1.83-.92,1.86,0C36.75,42.96,34.95,42.96,34.92,42.04Zm4.61,1.55a4.19257,4.19257,0,0,1-1.77,2,6.48748,6.48748,0,0,1-3.47.94H31.63a7.55082,7.55082,0,0,1-5.51-2.83c-.29-.48-.68-.73-1.17-.43005-.47.39-.38.83.05,1.32a9.045,9.045,0,0,0,6.6,3.37h2.69c2.69.03,5.63-1.41,6.57-3.85A.71416.71416,0,0,0,39.53,43.59Zm0,0a4.19257,4.19257,0,0,1-1.77,2,6.48748,6.48748,0,0,1-3.47.94H31.63a7.55082,7.55082,0,0,1-5.51-2.83c-.29-.48-.68-.73-1.17-.43005-.47.39-.38.83.05,1.32a9.045,9.045,0,0,0,6.6,3.37h2.69c2.69.03,5.63-1.41,6.57-3.85A.71416.71416,0,0,0,39.53,43.59Zm-3.68-3.68a2.13849,2.13849,0,1,0,0,4.26A2.13849,2.13849,0,1,0,35.85,39.91Zm-.93,2.13c.03-.92,1.83-.92,1.86,0C36.75,42.96,34.95,42.96,34.92,42.04Zm-5.7-2.13a2.13848,2.13848,0,1,0,0,4.26A2.13849,2.13849,0,1,0,29.22,39.91Zm-.93,2.13c.03-.92,1.83-.92,1.86,0C30.13,42.96,28.32,42.96,28.29,42.04Zm.93-2.13a2.13848,2.13848,0,1,0,0,4.26A2.13849,2.13849,0,1,0,29.22,39.91Zm-.93,2.13c.03-.92,1.83-.92,1.86,0C30.13,42.96,28.32,42.96,28.29,42.04Zm7.56-2.13a2.13849,2.13849,0,1,0,0,4.26A2.13849,2.13849,0,1,0,35.85,39.91Zm-.93,2.13c.03-.92,1.83-.92,1.86,0C36.75,42.96,34.95,42.96,34.92,42.04Zm4.61,1.55a4.19257,4.19257,0,0,1-1.77,2,6.48748,6.48748,0,0,1-3.47.94H31.63a7.55082,7.55082,0,0,1-5.51-2.83c-.29-.48-.68-.73-1.17-.43005-.47.39-.38.83.05,1.32a9.045,9.045,0,0,0,6.6,3.37h2.69c2.69.03,5.63-1.41,6.57-3.85A.71416.71416,0,0,0,39.53,43.59Zm0,0a4.19257,4.19257,0,0,1-1.77,2,6.48748,6.48748,0,0,1-3.47.94H31.63a7.55082,7.55082,0,0,1-5.51-2.83c-.29-.48-.68-.73-1.17-.43005-.47.39-.38.83.05,1.32a9.045,9.045,0,0,0,6.6,3.37h2.69c2.69.03,5.63-1.41,6.57-3.85A.71416.71416,0,0,0,39.53,43.59Zm-3.68-3.68a2.13849,2.13849,0,1,0,0,4.26A2.13849,2.13849,0,1,0,35.85,39.91Zm-.93,2.13c.03-.92,1.83-.92,1.86,0C36.75,42.96,34.95,42.96,34.92,42.04Zm-5.7-2.13a2.13848,2.13848,0,1,0,0,4.26A2.13849,2.13849,0,1,0,29.22,39.91Zm-.93,2.13c.03-.92,1.83-.92,1.86,0C30.13,42.96,28.32,42.96,28.29,42.04Z"/><path class="cls-1" d="M46.19,21.03c1.33-1.51,1.44-2.37,1.39-2.77A25.15485,25.15485,0,0,1,42.2,22.08l1.1,2.59-1.12.98c-.21-.43-1.54-3.59-1.54-3.59a.71079.71079,0,0,1,.3-.9c2.62-1.49,5.57-3.52,5.86-4.19a.7549.7549,0,0,1,.34-.54c.57-.36,1.5.23,1.83,1.51.23,1.14-.35,2.5-1.71,4.03A.71221.71221,0,0,1,46.19,21.03Z"/><path class="cls-1" d="M32,0A32,32,0,1,0,64,32,32.004,32.004,0,0,0,32,0ZM45.57,30a9.53379,9.53379,0,0,0,.88,1.63c2.6,3.79,3.52,7.32,2.75,10.47a10.04837,10.04837,0,0,1-4.56,6.01c-7.18,5.5-17.46,4.99-24.29.35-6.69-4.45-6.24-11.36-3.39-15.44L18,31.57a26.43456,26.43456,0,0,0,2.76-5.59l-2.93-.68a.35444.35444,0,0,1-.11005-.03c-4.19995-1.79-4.82-6.56-4.81-9.24a4.81484,4.81484,0,0,1,.98-2.94,2.52868,2.52868,0,0,1,3.99-.05c3.93,4.93,6.88,5.77,7.67,5.91,1.3-.9,7.44-4.67,13.16-.04a13.887,13.887,0,0,0,7.56-5.45,2.95284,2.95284,0,0,1,3.23-1.27,2.2849,2.2849,0,0,1,1.52,1.35c.02.08,3.09,8.13-4.84,11.94a.87867.87867,0,0,1-.15.05l-2.16.48Z"/></svg>