<svg id="Circular_glyph" data-name="Circular glyph" xmlns="http://www.w3.org/2000/svg" viewBox="0 0 64 64"><defs><style>.cls-1{fill:#090806;}</style></defs><title>1</title><path class="cls-1" d="M39.88,15.66a2.36512,2.36512,0,0,0,0,4.73A2.36512,2.36512,0,0,0,39.88,15.66Zm0,3.13a.76011.76011,0,0,1,0-1.52A.76011.76011,0,0,1,39.88,18.79Zm0-3.13a2.36512,2.36512,0,0,0,0,4.73A2.36512,2.36512,0,0,0,39.88,15.66Zm0,3.13a.76011.76011,0,0,1,0-1.52A.76011.76011,0,0,1,39.88,18.79ZM32,0A32,32,0,1,0,64,32,32.004,32.004,0,0,0,32,0ZM15.12,32.47a1.605,1.605,0,0,1,.6-2.87994,40.568,40.568,0,0,1,10.33-.51,16.93431,16.93431,0,0,1,12.5,7.46,6.4132,6.4132,0,0,1,.62,5.05c-.8,2.43-3.22,4.03-4.58,4.76ZM44.15,49.41A10.58,10.58,0,0,1,42.5,50.7a1.62888,1.62888,0,0,1-1.83-.02c-1.54-1.1-4.63-3.3-4.63-3.3,3.96-2.2,6.61-6.8,3.92-11.6a18.00155,18.00155,0,0,0-11.24-7.9l-.83-4.86C26.68,14.79,34.1,11.86,38.11,12.5c7.42,1.84,6.94,7.15,6.91,7.39a.86219.86219,0,0,0,.15.57l-.85.46a2.37632,2.37632,0,0,0-1.22,2.07,1.14138,1.14138,0,0,1-.25.83,4.71148,4.71148,0,0,1-3.47,1.83,9.86005,9.86005,0,0,1-5.27-1.55.80709.80709,0,1,0-.9,1.34,11.68,11.68,0,0,0,5.86,1.83l5.45,5.12C44.85,32.7,52.62,40.11,44.15,49.41ZM52.03,33.34a4.7685,4.7685,0,0,1-3.41-1.26l-6.25-5.73c1.11-.71,2.35-1.79,2.34-3.22a.805.805,0,0,1,.39-.8,14.92539,14.92539,0,0,0,1.63-.98c1.72,4.01,6.01,8.28,6.06,8.32a7.48355,7.48355,0,0,1,1.43,1.52C55.03,32.74,53.48,33.41,52.03,33.34ZM39.88,20.39a2.3652,2.3652,0,0,0,0-4.73A2.3652,2.3652,0,0,0,39.88,20.39Zm0-3.12a.76011.76011,0,0,1,0,1.52A.76011.76011,0,0,1,39.88,17.27Zm0-1.61a2.36512,2.36512,0,0,0,0,4.73A2.36512,2.36512,0,0,0,39.88,15.66Zm0,3.13a.76011.76011,0,0,1,0-1.52A.76011.76011,0,0,1,39.88,18.79Zm0-3.13a2.36512,2.36512,0,0,0,0,4.73A2.36512,2.36512,0,0,0,39.88,15.66Zm0,3.13a.76011.76011,0,0,1,0-1.52A.76011.76011,0,0,1,39.88,18.79Z"/></svg>