<svg id="Circular_glyph" data-name="Circular glyph" xmlns="http://www.w3.org/2000/svg" viewBox="0 0 64 64"><defs><style>.cls-1{fill:#231f20;}</style></defs><path class="cls-1" d="M44.86886,52.52153c.08121-.02193.00332.00323-.03705,0Z"/><path class="cls-1" d="M38.46,16.69a.37021.37021,0,0,0-.5-.16,3.53027,3.53027,0,0,1-2.85.32,2.77152,2.77152,0,0,0-.91-.51,3.58408,3.58408,0,0,0-3.04.52.37065.37065,0,0,0-.09.52.3557.3557,0,0,0,.51.08,3.61483,3.61483,0,0,1,1.66-.54,1.92708,1.92708,0,1,0,3.39.8,4.93242,4.93242,0,0,0,1.66-.53A.38008.38008,0,0,0,38.46,16.69Zm-3.71,2.62a1.18634,1.18634,0,0,1-.62-2.2,2.26755,2.26755,0,0,1,.59.38,2.79854,2.79854,0,0,0,1.16.27A1.19366,1.19366,0,0,1,34.75,19.31Z"/><path class="cls-1" d="M32,0A32,32,0,1,0,64,32,32.004,32.004,0,0,0,32,0ZM13.31,44.54a32.30038,32.30038,0,0,1,3.83-5.96,9.56922,9.56922,0,0,0,3.92.04c-.17,1.68-.57,2.77-1.13,3.14a.37431.37431,0,0,0,.17.68,8.40965,8.40965,0,0,0,5.5-1.56,7.01975,7.01975,0,0,1-.89,4.53c-.26.72.58.58,1.54.63a7.52024,7.52024,0,0,0,5.14-1.7c.16,1.3.15,3.08-.81,4.19a.37935.37935,0,0,0-.07.37c.2.35.39.23.99.27a7.48068,7.48068,0,0,0,5.3-2.12c.24,2.06,0,2.93-.26,3.3a.373.373,0,0,0,.23.58,3.87623,3.87623,0,0,0,.52.03c1.12,0,3.78-.45,4.95-4.48,1.06,1.68,2.13,3.74,2.21,5.33C32.18,52.95,15.71,45.64,13.31,44.54Zm31.46,5.31a20.82627,20.82627,0,0,0-2.38-4.48,16.75666,16.75666,0,0,0-3.07-3.7c-2.33-2.1-2.83-7.5-2.84-7.56a.37181.37181,0,0,0-.74.07c.03.23.54,5.75,3.08,8.04a12.54819,12.54819,0,0,1,1.68,1.74c.41.56.82,1.13,1.19,1.68-.92,4.06-3.24,4.58-4.28,4.59a8.72393,8.72393,0,0,0,.05-3.91,8.87837,8.87837,0,0,0,.86-1.43.37125.37125,0,0,0-.67-.32,6.62611,6.62611,0,0,1-6.1,3.85,7.30325,7.30325,0,0,0,.47-4.82,5.39815,5.39815,0,0,0,.94-2.57.37228.37228,0,0,0-.33-.41.37866.37866,0,0,0-.42.33c-.27,3.71-4.32,4.55-6.59,4.33a7.76567,7.76567,0,0,0,.63-5,5.834,5.834,0,0,0,1.28-2.04.37361.37361,0,0,0-.22-.48.35916.35916,0,0,0-.47.22c-.75,2.52-4.05,3.76-5.86,3.72a7.67007,7.67007,0,0,0,.84-3.31,4.15941,4.15941,0,0,0,1.91-1.43.36805.36805,0,1,0-.59-.44c-1.14,1.7-4.06,1.7-5.66,1.37l3.95-12.23C23.1,18.27,27,15.47,27.06,15.43a11.12854,11.12854,0,0,1,15.45.43l1.78,1.78-2.34,2.45c-1.63,2.03-5.72,1.31-5.77,1.3a.37014.37014,0,0,0-.41.23.394.394,0,0,0,.15.46A11.87976,11.87976,0,0,0,39.32,23.51,7.97284,7.97284,0,0,0,40.95,25.33a5.28807,5.28807,0,0,0-.88,2.72,8.5889,8.5889,0,0,0,1.44,5.26C45.22,39.07,45.12,46.27,44.77,49.85ZM41.73,24.99a7.75912,7.75912,0,0,1-1.3-1.22,18.713,18.713,0,0,0,4.45.31,3.88009,3.88009,0,0,1,2.38,1.67A5.98424,5.98424,0,0,1,41.73,24.99Zm7.09,2.39a6.89517,6.89517,0,0,0-.67-1.62,4.6993,4.6993,0,0,0-3.27-2.42,17.65531,17.65531,0,0,1-5.24-.51,13.85654,13.85654,0,0,1-1.72-.55c1.48-.01,3.46-.31,4.58-1.7l2.32-2.41,2.54,2.54C49.98,23.67,49.39,26.17,48.82,27.38Z"/></svg>