<svg id="Circular_glyph" data-name="Circular glyph" xmlns="http://www.w3.org/2000/svg" viewBox="0 0 64 64"><defs><style>.cls-1{fill:#090806;}</style></defs><title>1</title><path class="cls-1" d="M31.41,42.02c-.00995,0-.00995.01-.00995.02a.07771.07771,0,0,1,.04-.04C31.43,42,31.42,42.01,31.41,42.02Zm0,0c-.00995,0-.00995.01-.00995.02a.07771.07771,0,0,1,.04-.04C31.43,42,31.42,42.01,31.41,42.02Z"/><path class="cls-1" d="M32.3147,41.93076a1.24658,1.24658,0,0,1,.1073.093l.00712-.00715A.4358.4358,0,0,0,32.3147,41.93076Z"/><path class="cls-1" d="M16.92,28.06a.70072.70072,0,0,1-.03,1c-1.6,1.52-2.12,5.92-2.25,7.46a17.97784,17.97784,0,0,1-.48-4.18c0-.42.01-.84.04-1.24v-.02a7.45054,7.45054,0,0,1,1.71-3.06A.70377.70377,0,0,1,16.92,28.06Z"/><path class="cls-1" d="M21.21,46.88a17.92756,17.92756,0,0,1-2.49-2.36A.00974.00974,0,0,1,18.71,44.51a27.345,27.345,0,0,1-.92-8.82.70965.70965,0,0,1,.76-.67.72248.72248,0,0,1,.66.77C19.21,35.86,18.75,42.43,21.21,46.88Z"/><path class="cls-1" d="M23.72,18.54a.72646.72646,0,0,1,.46-.9c.35-.11,8.76-2.81005,15.67.22a.71168.71168,0,0,1,.37.94.746.746,0,0,1-.66.43.619.619,0,0,1-.29-.07,17.04711,17.04711,0,0,0-6.55-1.28v2.31a9.07466,9.07466,0,0,1,4.18.88.72857.72857,0,0,1,.27.98.70963.70963,0,0,1-.62.36.72961.72961,0,0,1-.35-.09,7.16931,7.16931,0,0,0-3.48-.69v1.74a5.38833,5.38833,0,0,1,1.68.39.715.715,0,0,1,.37.94.72893.72893,0,0,1-.66.43.63011.63011,0,0,1-.29-.06A4.07111,4.07111,0,0,0,32,24.79a8.03376,8.03376,0,0,0-1.88.3.71311.71311,0,1,1-.46-1.35A9.26914,9.26914,0,0,1,31.28,23.4V21.68a30.76392,30.76392,0,0,0-3.38.45c-.53.1-.63.12-.81.07a.71028.71028,0,0,1,.17-1.4c.08-.01.21-.04.38-.08a34.80583,34.80583,0,0,1,3.64-.48V17.9A28.57346,28.57346,0,0,0,24.63,19,.71674.71674,0,0,1,23.72,18.54Z"/><path class="cls-1" d="M44.27,24.56a2.5077,2.5077,0,0,0-2.64-.67,8.59792,8.59792,0,0,0-4.72,3.84,4.19058,4.19058,0,0,0-.52,2.16c.06,1.87.4,5.37,2.08,7.91a2.67037,2.67037,0,0,1,.44,1.72c-.21,1.83-1.37994,3.06-3.49,3.66a.395.395,0,0,0-.15.06c-.01.01-.85.36-2.63-1.05v.33a.65519.65519,0,0,0-.15-.42h-.14l.07-.08c.01,0,.02.01.02.03l.01-.01c.02.02.05.04.07.06h1.12a2.71323,2.71323,0,0,0,2.11-1.01l.55-.68a2.78287,2.78287,0,0,0,.61-1.7v-.58A2.72547,2.72547,0,0,0,36.03,36.14a2.68,2.68,0,0,0-1.84-.72H29.43a2.72648,2.72648,0,0,0-2.74,2.68l-.02.62a2.74824,2.74824,0,0,0,.81,1.99l.57.58A2.7381,2.7381,0,0,0,30,42.1h1.34a.33731.33731,0,0,1,.06-.06.20913.20913,0,0,0-.04.06.12417.12417,0,0,0-.03.02v.01a.13863.13863,0,0,1-.03.04.63221.63221,0,0,0-.09.35v-.23a3.70663,3.70663,0,0,1-2.36.86c-1.99-.5-3.18-1.51-3.54-3a3.72627,3.72627,0,0,1,.52-2.78,12.31544,12.31544,0,0,0,1.81-6.46v-.42c-.01-.24-.02-.46-.04-.68a5.81348,5.81348,0,0,0-1.92-3.95,10.188,10.188,0,0,0-3.9-2.05,1.88075,1.88075,0,0,0-1.22.03,2.10061,2.10061,0,0,0-.8.54,2.07792,2.07792,0,0,0-.34,2.32,7.75915,7.75915,0,0,0,6.79,4.51,10.81082,10.81082,0,0,1-1.6,5.41,5.08852,5.08852,0,0,0-.68,3.86c.33,1.43,1.42,3.3,4.67,4.08a.469.469,0,0,0,.17.02,5.9968,5.9968,0,0,0,2.44-.56v2.5a13.15682,13.15682,0,0,1-4.07-1.06.69906.69906,0,0,0-.95.33.70725.70725,0,0,0,.33.95A13.7609,13.7609,0,0,0,31.99,48a7.88515,7.88515,0,0,0,4.61-1.37.71437.71437,0,0,0-.82-1.17,6.2206,6.2206,0,0,1-3.14,1.07v-2.6a4.37637,4.37637,0,0,0,2.32.79,2.25289,2.25289,0,0,0,.91-.18c3.52-1.02,4.31-3.48,4.46-4.87a4.11058,4.11058,0,0,0-.67-2.66,13.32971,13.32971,0,0,1-1.77-5.97,11.30666,11.30666,0,0,0,2.83-.52A5.91885,5.91885,0,0,0,44.73,27.01,2.4602,2.4602,0,0,0,44.27,24.56ZM20.72,26.1a.69708.69708,0,0,1,.09-.76.82673.82673,0,0,1,.27-.17.3082.3082,0,0,1,.11-.02.58348.58348,0,0,1,.2.04,8.62532,8.62532,0,0,1,3.35,1.74,4.41469,4.41469,0,0,1,1.42,2.84A6.22846,6.22846,0,0,1,20.72,26.1ZM30,40.66a1.3,1.3,0,0,1-.93-.38l-.58-.57a1.33727,1.33727,0,0,1-.39-.96l.02-.62a1.26591,1.26591,0,0,1,.42-.93,1.28062,1.28062,0,0,1,.89-.35h4.76a1.28643,1.28643,0,0,1,.87.34,1.3046,1.3046,0,0,1,.42.94v.58a1.26024,1.26024,0,0,1-.3.8l-.54.68a1.3065,1.3065,0,0,1-1,.47ZM43.39,26.53c-.91,2.56-4.52,3.06-5.57,3.09a2.70126,2.70126,0,0,1,.33-1.19,7.21551,7.21551,0,0,1,3.97-3.19.88122.88122,0,0,1,.33-.06.96907.96907,0,0,1,.74.33A1.00018,1.00018,0,0,1,43.39,26.53Z"/><path class="cls-1" d="M46.21,35.77A23.87577,23.87577,0,0,1,45.5,44.26a17.69357,17.69357,0,0,1-2.38,2.36,21.85589,21.85589,0,0,0,1.67-10.68.72574.72574,0,0,1,.62-.8A.7132.7132,0,0,1,46.21,35.77Z"/><path class="cls-1" d="M48.61,28.06l1.21,3.24c.02.34.02.69.02,1.04A18.78467,18.78467,0,0,1,49.66,34.96L47.27,28.56a.71517.71517,0,1,1,1.34-.5Z"/><path class="cls-1" d="M32,0A32,32,0,1,0,64,32,32.004,32.004,0,0,0,32,0ZM51.11,34.88v.01a.87933.87933,0,0,1-.02.16,19.77084,19.77084,0,0,1-6.88,12.52.79505.79505,0,0,1-.17.13995,18.88222,18.88222,0,0,1-23.73.27.71771.71771,0,0,1-.15-.11,19.68992,19.68992,0,0,1-6.91-11l-.03-.12a19.42354,19.42354,0,0,1-.5-4.41A19.84332,19.84332,0,0,1,15.73,21.8a12.47408,12.47408,0,0,1-1.85-6.48,3.12077,3.12077,0,0,1,.99-2.39,3.17872,3.17872,0,0,1,2.41-.85A14.35348,14.35348,0,0,1,24.23,14.32a18.81852,18.81852,0,0,1,15.32-.1,29.48079,29.48079,0,0,1,6.16-2.14A3.47582,3.47582,0,0,1,49.72,15c.2,1.66-.35,3.85-1.62994,6.52a19.75441,19.75441,0,0,1,3.19,10.82A19.35263,19.35263,0,0,1,51.11,34.88Z"/></svg>