<svg id="Circular_glyph" data-name="Circular glyph" xmlns="http://www.w3.org/2000/svg" viewBox="0 0 64 64"><defs><style>.cls-1{fill:#090806;}</style></defs><title>1</title><path class="cls-1" d="M35.55,44.1a.743.743,0,0,1,1.01-.23,16.71,16.71,0,0,0,5.92,2.26.73273.73273,0,0,1-.08,1.46,17.4531,17.4531,0,0,1-6.62-2.48A.73888.73888,0,0,1,35.55,44.1Z"/><path class="cls-1" d="M42.82,41.67a.73514.73514,0,0,1,0-1.47A.73514.73514,0,0,1,42.82,41.67Z"/><path class="cls-1" d="M34.37,45.98a.73267.73267,0,0,1,1.01-.24c.05.04,5.42,3.34,9.12,2.75a.73855.73855,0,0,1,.22,1.46c-3.65.77-10.02-2.8-10.11-2.96A.73267.73267,0,0,1,34.37,45.98Z"/><path class="cls-1" d="M32,0A32,32,0,1,0,64,32,32.004,32.004,0,0,0,32,0ZM51.23,50.14l-1.72-1.32L42.71,43.58c-1.37-1.4-4.57-2.03-7.04-2.34a5.51758,5.51758,0,0,1-1.71-.47.79026.79026,0,0,0-.55,1.48,7.273,7.273,0,0,0,2.1.56c3.07.37,5.37,1.09,6.15,1.92l.09.09,7.19,5.53,1.37,1.06a1.09583,1.09583,0,0,0-.15.08C42.4,54.77,32.22,48.88,30.28,47.21a23.54062,23.54062,0,0,1-5.53-4.81,1.93983,1.93983,0,0,0,.24.02c1.14.1,5.66-.44,4.77-2.1a.72531.72531,0,0,0-1.02-.19,6.37515,6.37515,0,0,1-3.82.81,12.43873,12.43873,0,0,1-9.44-4.86c-.1-.18-.02-.41.23-.39l4.99.59c-.62-.24-.79-1.13-1.13-1.62-2.13-4.36-2.52-4.72-2.83-8.6-1.15-1.68-3.58-5.58-4.67-7.36a6.01757,6.01757,0,0,1-.78-3.28,1.48792,1.48792,0,0,1,2.47-1.18c1.85,1.51,1.68,1.2,2.64,1.39a3.80455,3.80455,0,0,1,1.56995.6,2.6194,2.6194,0,0,1,.73-.8c1.01-.49,2.52-1.35,2.9-2.18a1.39018,1.39018,0,0,1,2.46.04l.56,1.13c.97,2.39-.48,5.24-.7,5.66l-1.34,3.41a37.80341,37.80341,0,0,0,4.56,3.73l1.55-1.33a.74182.74182,0,0,1,1.13.23l2.06,4.06a53.44786,53.44786,0,0,0,6.23,3.03C48.77,37.99,51.18,49.23,51.27,49.7A.73592.73592,0,0,1,51.23,50.14Z"/></svg>