<svg id="Circular_glyph" data-name="Circular glyph" xmlns="http://www.w3.org/2000/svg" viewBox="0 0 64 64"><defs><style>.cls-1{fill:#090806;}</style></defs><title>1</title><path class="cls-1" d="M24.96,31.83a2.21011,2.21011,0,0,0,0,4.42A2.21011,2.21011,0,0,0,24.96,31.83Zm0,2.93005a.72.72,0,0,1,0-1.44A.72.72,0,0,1,24.96,34.76Z"/><path class="cls-1" d="M39.03,31.83a2.21011,2.21011,0,0,0,0,4.42A2.21011,2.21011,0,0,0,39.03,31.83Zm0,2.93005a.72016.72016,0,0,1,0-1.44A.72016.72016,0,0,1,39.03,34.76Z"/><path class="cls-1" d="M32,0A32,32,0,1,0,64,32,32.004,32.004,0,0,0,32,0ZM47.69,11.24c2.22.77,1.22,7.06-.74,13.26a23.02137,23.02137,0,0,0-5.32-4.9,85.247,85.247,0,0,1,5.72-6.46c-.03-.96-1.12-.57-1.75-.35-1.74,1.79-3.86,4.32-5.25,6.03A18.24482,18.24482,0,0,0,36.88,17.33C39.06,15.3,44.55,10.07,47.69,11.24Zm-32.43.58c.23-.54.33-.74005.83-.82,3.37994-.08,7.52,3.22,10.94,6.5a21.04469,21.04469,0,0,0-3.48,1.43,48.67638,48.67638,0,0,0-5.13-5.94,6.78887,6.78887,0,0,0-1.83-.49,4.28014,4.28014,0,0,0-.18006.76c1.84,1.33,4.35,4.48,5.84,6.43a21.49886,21.49886,0,0,0-4.27,3.52c-.4.42-.78.85-1.14,1.30005C14.07,16.5,14.77,13.02,15.26,11.82ZM31.58,50.96a2.477,2.477,0,0,1-2.18-.51A7.27743,7.27743,0,0,0,31.72,49.86a9.06391,9.06391,0,0,0,2.89.42A4.89257,4.89257,0,0,1,31.58,50.96Zm.19-7.65c2.89.07,2.88,2.85,0,2.92C28.93,46.17,28.86,43.39,31.77,43.31Zm12.85-4.39a8.36073,8.36073,0,0,1,5.06.98l-.64.01a1.49127,1.49127,0,0,0-1.45,1.76l.12994.72-7.9,3.13V44.04a4.6018,4.6018,0,0,1,.84-2.75A3.71484,3.71484,0,0,1,42.02,40.12a.74043.74043,0,0,0-.51-1.39,4.75675,4.75675,0,0,0-2.05,1.68c-1.13,1.38-1.21,3.52-1.13,5.31-.45,2.38-2.8,3.73-5.91,2.79v-.84c4.4-.7,3.76-5.81-.65-5.85-2.02,0-3.67,1.32-3.67,2.94995a3.16362,3.16362,0,0,0,2.83,2.87v.94a5.19,5.19,0,0,1-2.3.38,4.31723,4.31723,0,0,1-3.56-4.47l-.02-1.35c.35-2.95-2.82-4.46-2.95-4.52a.74493.74493,0,0,0-.63,1.35c.04-.02,2.45,1.27,2.09,3.14a21.05077,21.05077,0,0,0,.09,2.39l-7.47-3.04.2-.67a1.49845,1.49845,0,0,0-1.43-1.91H14.1c1.3-.81,3.15-1.58,4.82-.86a.74606.74606,0,0,0,.59-1.37c-2.33-1.01-4.75.03-6.34,1.04a33.838,33.838,0,0,1,5.69-11.95A18.10934,18.10934,0,0,1,31.77,19.6c4.7-.43,10.67,3.34,13.61,7.75A37.982,37.982,0,0,1,50.81,38.8a10.0245,10.0245,0,0,0-6.42-1.35.74393.74393,0,1,0,.23,1.47Z"/></svg>